<!DOCTYPE svg PUBLIC "-//W3C//DTD SVG 1.1//EN" "http://www.w3.org/Graphics/SVG/1.1/DTD/svg11.dtd">
<!-- Uploaded to: SVG Repo, www.svgrepo.com, Transformed by: SVG Repo Mixer Tools -->
<svg width="256px" height="256px" viewBox="0 0 24.00 24.00" xmlns="http://www.w3.org/2000/svg" fill="#787878" stroke="#787878" stroke-width="0.00024000000000000003" transform="matrix(1, 0, 0, 1, 0, 0)rotate(0)">
<g id="SVGRepo_bgCarrier" stroke-width="0" transform="translate(0,0), scale(1)">
<rect x="0" y="0" width="24.00" height="24.00" rx="0" fill="#bababa" strokewidth="0"/>
</g>
<g id="SVGRepo_tracerCarrier" stroke-linecap="round" stroke-linejoin="round" stroke="#CCCCCC" stroke-width="0.768"/>
<g id="SVGRepo_iconCarrier"> <title>webpack</title> <rect width="24" height="24" fill="none"/> <path d="M21,16.5a1,1,0,0,1-.53.88l-7.9,4.44a1,1,0,0,1-1.14,0l-7.9-4.44A1,1,0,0,1,3,16.5v-9a1,1,0,0,1,.53-.88l7.9-4.44a1,1,0,0,1,1.14,0l7.9,4.44A1,1,0,0,1,21,7.5v9M12,4.15,5,8.09v7.82l7,3.94,7-3.94V8.09L12,4.15m0,2.08,4.9,2.83L12,11.89,7.1,9.06,12,6.23m5,8.66L13,17.2V13.62l4-2.31v3.58M11,17.2,7,14.89V11.31l4,2.31Z"/> </g>
</svg>